<svg width="12in" height="12in" viewBox="0 0 4320 4320" xmlns="http://www.w3.org/2000/svg"><g style="display:inline"><path style="fill:#243665;fill-opacity:1;stroke:#4b4747;stroke-width:60;stroke-miterlimit:4;stroke-dasharray:none;stroke-opacity:1" d="M2151.348 37.541c-51.306.237-102.604 2.287-153.76 6.221-147.178 11.276-293.165 37.997-434.812 79.529a2121.54 2121.54 0 0 0-170.326 57.892 2118.491 2118.491 0 0 0-194.621 86.981 2119.95 2119.95 0 0 0-207.787 120.949 2122.7 2122.7 0 0 0-246.66 190.372 2121.584 2121.584 0 0 0-256.03 273.954c-91.48 117.087-170.594 243.822-235.634 377.417a2120.498 2120.498 0 0 0-104.267 254.998c-44.376 132.392-75.593 269.183-93.123 407.707a2121.4 2121.4 0 0 0-16.312 221.268c-1.14 54.28-.24 108.604 2.785 162.81 6.526 117.858 22.944 235.163 48.96 350.297 23.4 103.543 54.599 205.322 93.206 304.207a2121.792 2121.792 0 0 0 233.324 437.94 2122.1 2122.1 0 0 0 215.048 262.346 2124.895 2124.895 0 0 0 136.77 129.907 2122.803 2122.803 0 0 0 232.073 175.212 2121.605 2121.605 0 0 0 232.722 131.727 2122.616 2122.616 0 0 0 316.604 123.495 2120.508 2120.508 0 0 0 223.053 54.026 2121.718 2121.718 0 0 0 221.218 29.149 2125.83 2125.83 0 0 0 173.785 6.505c57.691-.184 115.372-2.765 172.853-7.67 74.927-6.373 149.51-16.77 223.335-31.071a2125.745 2125.745 0 0 0 206.666-50.912 2123.524 2123.524 0 0 0 277.6-105.028c109.21-50.307 214.14-109.906 313.259-177.975a2121.889 2121.889 0 0 0 222.657-175.86 2121.88 2121.88 0 0 0 287.654-318.822 2120.674 2120.674 0 0 0 94.705-140.59c79.295-128.483 144.814-265.458 195.067-407.831 41.953-118.814 73.314-241.368 93.539-365.738a2122.662 2122.662 0 0 0 23.86-215.645c3.217-54.197 4.32-108.518 3.39-162.802a2121.65 2121.65 0 0 0-11.428-185.612c-5.589-52.962-13.206-105.71-22.757-158.102a2125.532 2125.532 0 0 0-30.98-141.972 2119.567 2119.567 0 0 0-49.466-165.85 2120.425 2120.425 0 0 0-116.358-274.51 2120.796 2120.796 0 0 0-125.608-214.479 2125.263 2125.263 0 0 0-122.76-165.905 2123.424 2123.424 0 0 0-99.325-112.992 2119.45 2119.45 0 0 0-134.197-130.176c-71.672-63.652-147.679-122.419-227.291-175.807-63.634-42.661-129.57-81.892-197.445-117.418a2125.522 2125.522 0 0 0-237.862-106.484c-116.049-43.635-235.938-77.032-357.818-99.75A2122.448 2122.448 0 0 0 2257.84 39.78a2125.381 2125.381 0 0 0-104.303-2.241l-2.19.002z"/></g><g style="display:inline"><path style="fill:#f3f2f2;fill-opacity:.24387406;stroke:#57babd;stroke-width:3.75px;stroke-linecap:butt;stroke-linejoin:miter;stroke-opacity:1" d="M540 2160s324-648 756-648 864 648 864 648-324 648-864 648-756-648-756-648zM2212.5 2160s324-648 756-648 864 648 864 648-324 648-864 648-756-648-756-648z"/></g><path style="fill:none;stroke:#8bd8bd;stroke-width:120;stroke-linecap:round;stroke-linejoin:miter;stroke-miterlimit:4;stroke-dasharray:none;stroke-opacity:1" d="M864 1728v864"/><path style="fill:none;stroke:#8bd8bd;stroke-width:120;stroke-linecap:butt;stroke-linejoin:miter;stroke-miterlimit:4;stroke-dasharray:none;stroke-opacity:1" d="M1296 1512v1296"/><path style="fill:none;stroke:#8bd8bd;stroke-width:120;stroke-linecap:round;stroke-linejoin:miter;stroke-miterlimit:4;stroke-dasharray:none;stroke-opacity:1" d="M1728 1620v972M2592 1620v1080"/><path style="fill:none;stroke:#8bd8bd;stroke-width:120;stroke-linecap:butt;stroke-linejoin:miter;stroke-miterlimit:4;stroke-dasharray:none;stroke-opacity:1" d="M3024 1512v1296"/><path style="fill:none;stroke:#8bd8bd;stroke-width:120;stroke-linecap:round;stroke-linejoin:miter;stroke-miterlimit:4;stroke-dasharray:none;stroke-opacity:1" d="M3456 1728v864"/><g style="display:inline"><path style="fill:none;stroke:#8bd8bd;stroke-width:180;stroke-linecap:round;stroke-linejoin:miter;stroke-miterlimit:4;stroke-dasharray:none;stroke-opacity:1" d="M324 2592s323.709-1089.57 971.709-1089.57S2160 2160 2160 2160s227.716 660.458 875.716 660.458S4022.342 1735.875 3996 1728"/><path style="fill:none;stroke:#2280c0;stroke-width:180;stroke-linecap:round;stroke-linejoin:miter;stroke-miterlimit:4;stroke-dasharray:180,180;stroke-dashoffset:36;stroke-opacity:1" d="M324 1728.392s310.38 1073.556 958.38 1073.164c648-.393 877.62-641.164 877.62-641.164 34.814-.126 223.187-635.973 871.187-635.58 648 .392 991.155 1059.705 964.813 1067.58"/></g></svg>