<?xml version="1.0" encoding="UTF-8" standalone="no"?>
<!DOCTYPE svg PUBLIC "-//W3C//DTD SVG 1.1//EN"
 "http://www.w3.org/Graphics/SVG/1.1/DTD/svg11.dtd">
<!-- Generated by graphviz version 2.43.0 (0)
 -->
<!-- Title: bioloop_architecture Pages: 1 -->
<svg width="1252pt" height="468pt"
 viewBox="0.00 0.00 1251.66 468.00" xmlns="http://www.w3.org/2000/svg" xmlns:xlink="http://www.w3.org/1999/xlink">
<g id="graph0" class="graph" transform="scale(1 1) rotate(0) translate(4 464)">
<title>bioloop_architecture</title>
<polygon fill="white" stroke="transparent" points="-4,4 -4,-464 1247.66,-464 1247.66,4 -4,4"/>
<g id="clust1" class="cluster">
<title>cluster_user</title>
<polygon fill="#f5f5f5" stroke="black" points="8,-323 8,-416 169.66,-416 169.66,-323 8,-323"/>
<text text-anchor="middle" x="88.83" y="-400.8" font-family="Times,serif" font-size="14.00">User</text>
</g>
<g id="clust2" class="cluster">
<title>cluster_frontend</title>
<polygon fill="#dce8f8" stroke="black" points="240.66,-323 240.66,-416 363.66,-416 363.66,-323 240.66,-323"/>
<text text-anchor="middle" x="302.16" y="-400.8" font-family="Times,serif" font-size="14.00">Frontend</text>
</g>
<g id="clust3" class="cluster">
<title>cluster_core</title>
<polygon fill="#fff3cd" stroke="black" points="572.16,-288 572.16,-452 735.16,-452 735.16,-288 572.16,-288"/>
<text text-anchor="middle" x="653.66" y="-436.8" font-family="Times,serif" font-size="14.00">Core Services</text>
</g>
<g id="clust4" class="cluster">
<title>cluster_auth</title>
<polygon fill="#fde8e8" stroke="black" points="963.66,-359 963.66,-452 1235.66,-452 1235.66,-359 963.66,-359"/>
<text text-anchor="middle" x="1099.66" y="-436.8" font-family="Times,serif" font-size="14.00">Auth (Signet)</text>
</g>
<g id="clust5" class="cluster">
<title>cluster_workflow</title>
<polygon fill="#e8f5e8" stroke="black" points="596.66,-8 596.66,-139 1077.66,-139 1077.66,-8 596.66,-8"/>
<text text-anchor="middle" x="837.16" y="-123.8" font-family="Times,serif" font-size="14.00">Workflow Engine (Rhythm)</text>
</g>
<g id="clust6" class="cluster">
<title>cluster_workers</title>
<polygon fill="#f0e8ff" stroke="black" points="553.66,-147 553.66,-280 754.66,-280 754.66,-147 553.66,-147"/>
<text text-anchor="middle" x="654.16" y="-264.8" font-family="Times,serif" font-size="14.00">Workers (Python / Celery)</text>
</g>
<g id="clust7" class="cluster">
<title>cluster_storage</title>
<polygon fill="#fff8e1" stroke="black" points="938.66,-202 938.66,-349 1102.66,-349 1102.66,-202 938.66,-202"/>
<text text-anchor="middle" x="1020.66" y="-333.8" font-family="Times,serif" font-size="14.00">Storage</text>
</g>
<!-- user -->
<g id="node1" class="node">
<title>user</title>
<ellipse fill="#e0e0e0" stroke="black" cx="88.83" cy="-358" rx="72.66" ry="26.74"/>
<text text-anchor="middle" x="88.83" y="-361.8" font-family="Helvetica,sans-Serif" font-size="14.00">Researcher /</text>
<text text-anchor="middle" x="88.83" y="-346.8" font-family="Helvetica,sans-Serif" font-size="14.00">Operator</text>
</g>
<!-- ui -->
<g id="node2" class="node">
<title>ui</title>
<polygon fill="#b3d4f5" stroke="black" points="355.66,-384.5 248.66,-384.5 248.66,-331.5 355.66,-331.5 355.66,-384.5"/>
<text text-anchor="middle" x="302.16" y="-369.3" font-family="Helvetica,sans-Serif" font-size="14.00">UI</text>
<text text-anchor="middle" x="302.16" y="-354.3" font-family="Helvetica,sans-Serif" font-size="14.00">(Vue 3 / Vite)</text>
<text text-anchor="middle" x="302.16" y="-339.3" font-family="Helvetica,sans-Serif" font-size="14.00">:443</text>
</g>
<!-- user&#45;&gt;ui -->
<g id="edge1" class="edge">
<title>user&#45;&gt;ui</title>
<path fill="none" stroke="black" d="M161.67,-358C186.59,-358 214.32,-358 238.44,-358"/>
<polygon fill="black" stroke="black" points="238.54,-361.5 248.54,-358 238.54,-354.5 238.54,-361.5"/>
<text text-anchor="middle" x="205.16" y="-361.8" font-family="Times,serif" font-size="14.00">HTTPS</text>
</g>
<!-- api -->
<g id="node3" class="node">
<title>api</title>
<polygon fill="#ffe082" stroke="black" points="727.16,-420.5 580.16,-420.5 580.16,-367.5 727.16,-367.5 727.16,-420.5"/>
<text text-anchor="middle" x="653.66" y="-405.3" font-family="Helvetica,sans-Serif" font-size="14.00">API</text>
<text text-anchor="middle" x="653.66" y="-390.3" font-family="Helvetica,sans-Serif" font-size="14.00">(Node.js / Express)</text>
<text text-anchor="middle" x="653.66" y="-375.3" font-family="Helvetica,sans-Serif" font-size="14.00">:3030</text>
</g>
<!-- ui&#45;&gt;api -->
<g id="edge2" class="edge">
<title>ui&#45;&gt;api</title>
<path fill="none" stroke="black" d="M355.87,-363.43C412.64,-369.28 503.74,-378.66 570.05,-385.49"/>
<polygon fill="black" stroke="black" points="569.75,-388.98 580.06,-386.52 570.47,-382.02 569.75,-388.98"/>
<text text-anchor="middle" x="459.66" y="-385.8" font-family="Times,serif" font-size="14.00">proxy /api</text>
</g>
<!-- secure_dl -->
<g id="node4" class="node">
<title>secure_dl</title>
<polygon fill="#ffe082" stroke="black" points="722.16,-349.5 585.16,-349.5 585.16,-296.5 722.16,-296.5 722.16,-349.5"/>
<text text-anchor="middle" x="653.66" y="-334.3" font-family="Helvetica,sans-Serif" font-size="14.00">Secure Download</text>
<text text-anchor="middle" x="653.66" y="-319.3" font-family="Helvetica,sans-Serif" font-size="14.00">(Node.js)</text>
<text text-anchor="middle" x="653.66" y="-304.3" font-family="Helvetica,sans-Serif" font-size="14.00">:3060</text>
</g>
<!-- ui&#45;&gt;secure_dl -->
<g id="edge3" class="edge">
<title>ui&#45;&gt;secure_dl</title>
<path fill="none" stroke="black" d="M355.87,-350.22C361.86,-349.43 367.89,-348.67 373.66,-348 441.43,-340.16 518.69,-333.41 574.71,-328.9"/>
<polygon fill="black" stroke="black" points="575.22,-332.37 584.91,-328.09 574.66,-325.4 575.22,-332.37"/>
<text text-anchor="middle" x="459.66" y="-351.8" font-family="Times,serif" font-size="14.00">proxy /secure_download</text>
</g>
<!-- signet -->
<g id="node5" class="node">
<title>signet</title>
<polygon fill="#f5b8b8" stroke="black" points="1069.66,-420.5 971.66,-420.5 971.66,-367.5 1069.66,-367.5 1069.66,-420.5"/>
<text text-anchor="middle" x="1020.66" y="-405.3" font-family="Helvetica,sans-Serif" font-size="14.00">Signet</text>
<text text-anchor="middle" x="1020.66" y="-390.3" font-family="Helvetica,sans-Serif" font-size="14.00">(OAuth 2.0)</text>
<text text-anchor="middle" x="1020.66" y="-375.3" font-family="Helvetica,sans-Serif" font-size="14.00">:5050</text>
</g>
<!-- api&#45;&gt;signet -->
<g id="edge5" class="edge">
<title>api&#45;&gt;signet</title>
<path fill="none" stroke="black" d="M727.21,-394C795.85,-394 897.55,-394 961.15,-394"/>
<polygon fill="black" stroke="black" points="961.41,-397.5 971.41,-394 961.41,-390.5 961.41,-397.5"/>
<text text-anchor="middle" x="845.66" y="-397.8" font-family="Times,serif" font-size="14.00">JWKS / token exchange</text>
</g>
<!-- rhythm -->
<g id="node7" class="node">
<title>rhythm</title>
<polygon fill="#a5d6a7" stroke="black" points="702.66,-107.5 604.66,-107.5 604.66,-54.5 702.66,-54.5 702.66,-107.5"/>
<text text-anchor="middle" x="653.66" y="-92.3" font-family="Helvetica,sans-Serif" font-size="14.00">Rhythm API</text>
<text text-anchor="middle" x="653.66" y="-77.3" font-family="Helvetica,sans-Serif" font-size="14.00">(FastAPI)</text>
<text text-anchor="middle" x="653.66" y="-62.3" font-family="Helvetica,sans-Serif" font-size="14.00">:5001</text>
</g>
<!-- api&#45;&gt;rhythm -->
<g id="edge7" class="edge">
<title>api&#45;&gt;rhythm</title>
<path fill="none" stroke="black" d="M579.91,-373.29C570.7,-369.25 561.7,-364.52 553.66,-359 354.87,-222.52 404.82,-229.84 426.66,-194.5 463.08,-135.57 540.38,-106.22 594.62,-92.34"/>
<polygon fill="black" stroke="black" points="595.58,-95.7 604.46,-89.92 593.91,-88.9 595.58,-95.7"/>
<text text-anchor="middle" x="459.66" y="-198.3" font-family="Times,serif" font-size="14.00">workflow dispatch</text>
</g>
<!-- postgres -->
<g id="node12" class="node">
<title>postgres</title>
<polygon fill="#ffe57f" stroke="black" points="1068.66,-318 972.66,-318 972.66,-280 1068.66,-280 1068.66,-318"/>
<text text-anchor="middle" x="1020.66" y="-302.8" font-family="Helvetica,sans-Serif" font-size="14.00">PostgreSQL</text>
<text text-anchor="middle" x="1020.66" y="-287.8" font-family="Helvetica,sans-Serif" font-size="14.00">(App Data)</text>
</g>
<!-- api&#45;&gt;postgres -->
<g id="edge4" class="edge">
<title>api&#45;&gt;postgres</title>
<path fill="none" stroke="black" d="M727.21,-375.12C796.38,-357.11 899.14,-330.37 962.64,-313.84"/>
<polygon fill="black" stroke="black" points="963.68,-317.19 972.48,-311.28 961.92,-310.41 963.68,-317.19"/>
</g>
<!-- landing -->
<g id="node13" class="node">
<title>landing</title>
<path fill="#ffe57f" stroke="black" d="M1094.66,-257.48C1094.66,-260.11 1061.5,-262.25 1020.66,-262.25 979.83,-262.25 946.66,-260.11 946.66,-257.48 946.66,-257.48 946.66,-214.52 946.66,-214.52 946.66,-211.89 979.83,-209.75 1020.66,-209.75 1061.5,-209.75 1094.66,-211.89 1094.66,-214.52 1094.66,-214.52 1094.66,-257.48 1094.66,-257.48"/>
<path fill="none" stroke="black" d="M1094.66,-257.48C1094.66,-254.84 1061.5,-252.7 1020.66,-252.7 979.83,-252.7 946.66,-254.84 946.66,-257.48"/>
<text text-anchor="middle" x="1020.66" y="-239.8" font-family="Helvetica,sans-Serif" font-size="14.00">Shared File Volume</text>
<text text-anchor="middle" x="1020.66" y="-224.8" font-family="Helvetica,sans-Serif" font-size="14.00">(/opt/sca/data)</text>
</g>
<!-- secure_dl&#45;&gt;landing -->
<g id="edge15" class="edge">
<title>secure_dl&#45;&gt;landing</title>
<path fill="none" stroke="black" d="M722.46,-306.84C783.06,-292.4 872.02,-271.19 936.81,-255.75"/>
<polygon fill="black" stroke="black" points="937.68,-259.14 946.59,-253.42 936.06,-252.33 937.68,-259.14"/>
<text text-anchor="middle" x="845.66" y="-298.8" font-family="Times,serif" font-size="14.00">read</text>
</g>
<!-- signet_db -->
<g id="node6" class="node">
<title>signet_db</title>
<polygon fill="#f5b8b8" stroke="black" points="1227.66,-413 1131.66,-413 1131.66,-375 1227.66,-375 1227.66,-413"/>
<text text-anchor="middle" x="1179.66" y="-397.8" font-family="Helvetica,sans-Serif" font-size="14.00">PostgreSQL</text>
<text text-anchor="middle" x="1179.66" y="-382.8" font-family="Helvetica,sans-Serif" font-size="14.00">(Signet)</text>
</g>
<!-- signet&#45;&gt;signet_db -->
<g id="edge6" class="edge">
<title>signet&#45;&gt;signet_db</title>
<path fill="none" stroke="black" d="M1070.05,-394C1086.24,-394 1104.45,-394 1121.26,-394"/>
<polygon fill="black" stroke="black" points="1121.51,-397.5 1131.51,-394 1121.51,-390.5 1121.51,-397.5"/>
</g>
<!-- queue -->
<g id="node8" class="node">
<title>queue</title>
<polygon fill="#a5d6a7" stroke="black" points="1063.16,-52 978.16,-52 978.16,-16 1063.16,-16 1063.16,-52"/>
<text text-anchor="middle" x="1020.66" y="-30.3" font-family="Helvetica,sans-Serif" font-size="14.00">RabbitMQ</text>
</g>
<!-- rhythm&#45;&gt;queue -->
<g id="edge8" class="edge">
<title>rhythm&#45;&gt;queue</title>
<path fill="none" stroke="black" d="M702.76,-74.81C771.49,-65.96 897.28,-49.76 967.95,-40.66"/>
<polygon fill="black" stroke="black" points="968.49,-44.12 977.97,-39.37 967.6,-37.18 968.49,-44.12"/>
</g>
<!-- mongo -->
<g id="node9" class="node">
<title>mongo</title>
<polygon fill="#a5d6a7" stroke="black" points="1069.66,-108 971.66,-108 971.66,-70 1069.66,-70 1069.66,-108"/>
<text text-anchor="middle" x="1020.66" y="-92.8" font-family="Helvetica,sans-Serif" font-size="14.00">MongoDB</text>
<text text-anchor="middle" x="1020.66" y="-77.8" font-family="Helvetica,sans-Serif" font-size="14.00">(Task State)</text>
</g>
<!-- rhythm&#45;&gt;mongo -->
<g id="edge9" class="edge">
<title>rhythm&#45;&gt;mongo</title>
<path fill="none" stroke="black" d="M702.76,-82.05C769.36,-83.51 889.57,-86.15 961.25,-87.72"/>
<polygon fill="black" stroke="black" points="961.39,-91.22 971.46,-87.94 961.54,-84.23 961.39,-91.22"/>
</g>
<!-- celery -->
<g id="node10" class="node">
<title>celery</title>
<polygon fill="#ce93d8" stroke="black" points="714.66,-193 592.66,-193 592.66,-155 714.66,-155 714.66,-193"/>
<text text-anchor="middle" x="653.66" y="-177.8" font-family="Helvetica,sans-Serif" font-size="14.00">celery_worker</text>
<text text-anchor="middle" x="653.66" y="-162.8" font-family="Helvetica,sans-Serif" font-size="14.00">(Task Executor)</text>
</g>
<!-- queue&#45;&gt;celery -->
<g id="edge10" class="edge">
<title>queue&#45;&gt;celery</title>
<path fill="none" stroke="black" d="M978.09,-47.17C962.61,-51.97 944.87,-57.36 928.66,-62 855.29,-83 815.37,-50.8 762.66,-106 751.05,-118.17 766.03,-130.59 754.66,-143 746.46,-151.95 735.73,-158.34 724.35,-162.9"/>
<polygon fill="black" stroke="black" points="722.95,-159.69 714.68,-166.31 725.28,-166.29 722.95,-159.69"/>
<text text-anchor="middle" x="845.66" y="-109.8" font-family="Times,serif" font-size="14.00">tasks</text>
</g>
<!-- celery&#45;&gt;mongo -->
<g id="edge11" class="edge">
<title>celery&#45;&gt;mongo</title>
<path fill="none" stroke="black" d="M714.77,-166.77C770.82,-159.2 856.38,-145.54 928.66,-125 941.43,-121.37 954.87,-116.61 967.39,-111.74"/>
<polygon fill="black" stroke="black" points="968.77,-114.96 976.76,-108.01 966.18,-108.46 968.77,-114.96"/>
<text text-anchor="middle" x="845.66" y="-163.8" font-family="Times,serif" font-size="14.00">results</text>
</g>
<!-- celery&#45;&gt;landing -->
<g id="edge12" class="edge">
<title>celery&#45;&gt;landing</title>
<path fill="none" stroke="black" d="M714.94,-184.24C775.31,-194.49 868.73,-210.36 936.21,-221.82"/>
<polygon fill="black" stroke="black" points="935.95,-225.33 946.39,-223.55 937.12,-218.43 935.95,-225.33"/>
</g>
<!-- watch -->
<g id="node11" class="node">
<title>watch</title>
<polygon fill="#ce93d8" stroke="black" points="707.16,-249 600.16,-249 600.16,-211 707.16,-211 707.16,-249"/>
<text text-anchor="middle" x="653.66" y="-233.8" font-family="Helvetica,sans-Serif" font-size="14.00">watch</text>
<text text-anchor="middle" x="653.66" y="-218.8" font-family="Helvetica,sans-Serif" font-size="14.00">(File Monitor)</text>
</g>
<!-- watch&#45;&gt;api -->
<g id="edge14" class="edge">
<title>watch&#45;&gt;api</title>
<path fill="none" stroke="black" d="M599.98,-226.72C550.18,-226.95 478.4,-236.34 441.66,-283.5 400.78,-335.99 494.22,-366.07 569.8,-381.22"/>
<polygon fill="black" stroke="black" points="569.37,-384.71 579.86,-383.18 570.71,-377.84 569.37,-384.71"/>
<text text-anchor="middle" x="459.66" y="-287.3" font-family="Times,serif" font-size="14.00">trigger ingest</text>
</g>
<!-- watch&#45;&gt;landing -->
<g id="edge13" class="edge">
<title>watch&#45;&gt;landing</title>
<path fill="none" stroke="black" d="M707.35,-230.87C767.28,-231.85 865.94,-233.47 936.33,-234.63"/>
<polygon fill="black" stroke="black" points="936.44,-238.13 946.5,-234.8 936.56,-231.13 936.44,-238.13"/>
<text text-anchor="middle" x="845.66" y="-238.8" font-family="Times,serif" font-size="14.00">monitor</text>
</g>
</g>
</svg>
