<?xml version="1.0" encoding="UTF-8" standalone="no"?>
<!DOCTYPE svg PUBLIC "-//W3C//DTD SVG 1.1//EN"
 "http://www.w3.org/Graphics/SVG/1.1/DTD/svg11.dtd">
<!-- Generated by graphviz version 2.43.0 (0)
 -->
<!-- Title: dataflow_pipeline Pages: 1 -->
<svg width="1505pt" height="235pt"
 viewBox="0.00 0.00 1505.00 235.00" xmlns="http://www.w3.org/2000/svg" xmlns:xlink="http://www.w3.org/1999/xlink">
<g id="graph0" class="graph" transform="scale(1 1) rotate(0) translate(4 231)">
<title>dataflow_pipeline</title>
<polygon fill="white" stroke="transparent" points="-4,4 -4,-231 1501,-231 1501,4 -4,4"/>
<g id="clust1" class="cluster">
<title>cluster_lab</title>
<polygon fill="#f0f0f0" stroke="black" points="8,-8 8,-141 121,-141 121,-8 8,-8"/>
<text text-anchor="middle" x="64.5" y="-125.8" font-family="Times,serif" font-size="14.00">Laboratory</text>
</g>
<g id="clust2" class="cluster">
<title>cluster_vm</title>
<polygon fill="#dce8f8" stroke="black" points="218,-41 218,-219 1206,-219 1206,-41 218,-41"/>
<text text-anchor="middle" x="712" y="-203.8" font-family="Times,serif" font-size="14.00">Hosted Instance</text>
</g>
<g id="clust3" class="cluster">
<title>cluster_bioloop</title>
<polygon fill="#e8f0fc" stroke="black" points="506,-51 506,-128 924,-128 924,-51 506,-51"/>
<text text-anchor="middle" x="715" y="-112.8" font-family="Times,serif" font-size="14.00">Bioloop</text>
</g>
<g id="clust4" class="cluster">
<title>cluster_access</title>
<polygon fill="#e8f5e8" stroke="black" points="1347,-9 1347,-142 1497,-142 1497,-9 1347,-9"/>
<text text-anchor="middle" x="1422" y="-126.8" font-family="Times,serif" font-size="14.00">Researcher Access</text>
</g>
<!-- inst1 -->
<g id="node1" class="node">
<title>inst1</title>
<polygon fill="#d0d0d0" stroke="black" points="113,-110 16,-110 16,-72 113,-72 113,-110"/>
<text text-anchor="middle" x="64.5" y="-94.8" font-family="Helvetica,sans-Serif" font-size="14.00">Instrument</text>
<text text-anchor="middle" x="64.5" y="-79.8" font-family="Helvetica,sans-Serif" font-size="14.00">(legacy OS)</text>
</g>
<!-- samba -->
<g id="node3" class="node">
<title>samba</title>
<polygon fill="#b3d4f5" stroke="black" points="348,-97 226,-97 226,-59 348,-59 348,-97"/>
<text text-anchor="middle" x="287" y="-81.8" font-family="Helvetica,sans-Serif" font-size="14.00">Samba</text>
<text text-anchor="middle" x="287" y="-66.8" font-family="Helvetica,sans-Serif" font-size="14.00">(SMB Gateway)</text>
</g>
<!-- inst1&#45;&gt;samba -->
<g id="edge1" class="edge">
<title>inst1&#45;&gt;samba</title>
<path fill="none" stroke="black" d="M113.07,-88.2C143.02,-86.43 182.2,-84.12 215.7,-82.14"/>
<polygon fill="black" stroke="black" points="216.12,-85.63 225.89,-81.54 215.7,-78.64 216.12,-85.63"/>
<text text-anchor="middle" x="169.5" y="-89.8" font-family="Times,serif" font-size="14.00">SMB write</text>
</g>
<!-- inst2 -->
<g id="node2" class="node">
<title>inst2</title>
<polygon fill="#d0d0d0" stroke="black" points="111.5,-54 17.5,-54 17.5,-16 111.5,-16 111.5,-54"/>
<text text-anchor="middle" x="64.5" y="-38.8" font-family="Helvetica,sans-Serif" font-size="14.00">Instrument</text>
<text text-anchor="middle" x="64.5" y="-23.8" font-family="Helvetica,sans-Serif" font-size="14.00">(modern)</text>
</g>
<!-- inst2&#45;&gt;samba -->
<g id="edge2" class="edge">
<title>inst2&#45;&gt;samba</title>
<path fill="none" stroke="black" d="M111.72,-44.01C141.84,-49.89 181.7,-57.66 215.71,-64.29"/>
<polygon fill="black" stroke="black" points="215.11,-67.74 225.59,-66.22 216.45,-60.87 215.11,-67.74"/>
<text text-anchor="middle" x="169.5" y="-64.8" font-family="Times,serif" font-size="14.00">SMB write</text>
</g>
<!-- watch -->
<g id="node4" class="node">
<title>watch</title>
<polygon fill="#90caf9" stroke="black" points="624,-97 514,-97 514,-59 624,-59 624,-97"/>
<text text-anchor="middle" x="569" y="-81.8" font-family="Helvetica,sans-Serif" font-size="14.00">watch worker</text>
<text text-anchor="middle" x="569" y="-66.8" font-family="Helvetica,sans-Serif" font-size="14.00">(file monitor)</text>
</g>
<!-- samba&#45;&gt;watch -->
<g id="edge3" class="edge">
<title>samba&#45;&gt;watch</title>
<path fill="none" stroke="black" d="M348.07,-78C393.88,-78 456.86,-78 503.69,-78"/>
<polygon fill="black" stroke="black" points="503.72,-81.5 513.72,-78 503.72,-74.5 503.72,-81.5"/>
<text text-anchor="middle" x="431" y="-81.8" font-family="Times,serif" font-size="14.00">new files detected</text>
</g>
<!-- bioloop -->
<g id="node5" class="node">
<title>bioloop</title>
<polygon fill="#90caf9" stroke="black" points="916,-97 760,-97 760,-59 916,-59 916,-97"/>
<text text-anchor="middle" x="838" y="-81.8" font-family="Helvetica,sans-Serif" font-size="14.00">API + celery_worker</text>
<text text-anchor="middle" x="838" y="-66.8" font-family="Helvetica,sans-Serif" font-size="14.00">(orchestration)</text>
</g>
<!-- watch&#45;&gt;bioloop -->
<g id="edge4" class="edge">
<title>watch&#45;&gt;bioloop</title>
<path fill="none" stroke="black" d="M624.03,-78C660.07,-78 708.25,-78 749.68,-78"/>
<polygon fill="black" stroke="black" points="749.77,-81.5 759.77,-78 749.77,-74.5 749.77,-81.5"/>
<text text-anchor="middle" x="692" y="-81.8" font-family="Times,serif" font-size="14.00">trigger ingest</text>
</g>
<!-- tape -->
<g id="node6" class="node">
<title>tape</title>
<path fill="#b3d4f5" stroke="black" d="M1190.5,-174.48C1190.5,-177.11 1166.52,-179.25 1137,-179.25 1107.48,-179.25 1083.5,-177.11 1083.5,-174.48 1083.5,-174.48 1083.5,-131.52 1083.5,-131.52 1083.5,-128.89 1107.48,-126.75 1137,-126.75 1166.52,-126.75 1190.5,-128.89 1190.5,-131.52 1190.5,-131.52 1190.5,-174.48 1190.5,-174.48"/>
<path fill="none" stroke="black" d="M1190.5,-174.48C1190.5,-171.84 1166.52,-169.7 1137,-169.7 1107.48,-169.7 1083.5,-171.84 1083.5,-174.48"/>
<text text-anchor="middle" x="1137" y="-156.8" font-family="Helvetica,sans-Serif" font-size="14.00">Tape Archive</text>
<text text-anchor="middle" x="1137" y="-141.8" font-family="Helvetica,sans-Serif" font-size="14.00">(HPSS / SDA)</text>
</g>
<!-- bioloop&#45;&gt;tape -->
<g id="edge5" class="edge">
<title>bioloop&#45;&gt;tape</title>
<path fill="none" stroke="black" d="M863.22,-97.19C881.54,-110.56 907.92,-127.47 934,-136 979.02,-150.72 1032.54,-154.66 1073.17,-155.09"/>
<polygon fill="black" stroke="black" points="1073.2,-158.59 1083.22,-155.13 1073.23,-151.59 1073.2,-158.59"/>
<text text-anchor="middle" x="996" y="-172.8" font-family="Times,serif" font-size="14.00">1. archive</text>
<text text-anchor="middle" x="996" y="-157.8" font-family="Times,serif" font-size="14.00">(tar + checksum)</text>
</g>
<!-- hpc -->
<g id="node7" class="node">
<title>hpc</title>
<path fill="#b3d4f5" stroke="black" d="M1198,-101.48C1198,-104.11 1170.66,-106.25 1137,-106.25 1103.34,-106.25 1076,-104.11 1076,-101.48 1076,-101.48 1076,-58.52 1076,-58.52 1076,-55.89 1103.34,-53.75 1137,-53.75 1170.66,-53.75 1198,-55.89 1198,-58.52 1198,-58.52 1198,-101.48 1198,-101.48"/>
<path fill="none" stroke="black" d="M1198,-101.48C1198,-98.84 1170.66,-96.7 1137,-96.7 1103.34,-96.7 1076,-98.84 1076,-101.48"/>
<text text-anchor="middle" x="1137" y="-83.8" font-family="Helvetica,sans-Serif" font-size="14.00">HPC Filesystem</text>
<text text-anchor="middle" x="1137" y="-68.8" font-family="Helvetica,sans-Serif" font-size="14.00">(Lustre / Slate)</text>
</g>
<!-- bioloop&#45;&gt;hpc -->
<g id="edge7" class="edge">
<title>bioloop&#45;&gt;hpc</title>
<path fill="none" stroke="black" d="M916.2,-69.19C922.22,-68.71 928.2,-68.3 934,-68 989.04,-65.11 1003.05,-63.8 1058,-68 1060.51,-68.19 1063.06,-68.42 1065.64,-68.67"/>
<polygon fill="black" stroke="black" points="1065.31,-72.16 1075.64,-69.78 1066.09,-65.2 1065.31,-72.16"/>
<text text-anchor="middle" x="996" y="-86.8" font-family="Times,serif" font-size="14.00">2. stage</text>
<text text-anchor="middle" x="996" y="-71.8" font-family="Times,serif" font-size="14.00">(untar to Lustre)</text>
</g>
<!-- tape&#45;&gt;bioloop -->
<g id="edge6" class="edge">
<title>tape&#45;&gt;bioloop</title>
<path fill="none" stroke="black" d="M1088.14,-128.37C1078.36,-124.06 1068,-120.01 1058,-117 1004.61,-100.94 988.86,-107.97 934,-98 931.37,-97.52 928.7,-97.03 926.01,-96.52"/>
<polygon fill="black" stroke="black" points="926.66,-93.08 916.18,-94.62 925.34,-99.95 926.66,-93.08"/>
<text text-anchor="middle" x="996" y="-120.8" font-family="Times,serif" font-size="14.00">confirmed</text>
</g>
<!-- webui -->
<g id="node8" class="node">
<title>webui</title>
<polygon fill="#a5d6a7" stroke="black" points="1475,-55 1368,-55 1368,-17 1475,-17 1475,-55"/>
<text text-anchor="middle" x="1421.5" y="-39.8" font-family="Helvetica,sans-Serif" font-size="14.00">Web Browser</text>
<text text-anchor="middle" x="1421.5" y="-24.8" font-family="Helvetica,sans-Serif" font-size="14.00">(Bioloop UI)</text>
</g>
<!-- hpc&#45;&gt;webui -->
<g id="edge8" class="edge">
<title>hpc&#45;&gt;webui</title>
<path fill="none" stroke="black" d="M1198.39,-67.2C1204.33,-66.07 1210.28,-64.98 1216,-64 1263.38,-55.91 1317.25,-48.61 1357.8,-43.49"/>
<polygon fill="black" stroke="black" points="1358.33,-46.95 1367.82,-42.24 1357.46,-40.01 1358.33,-46.95"/>
<text text-anchor="middle" x="1276.5" y="-67.8" font-family="Times,serif" font-size="14.00">secure download</text>
</g>
<!-- hpclogin -->
<g id="node9" class="node">
<title>hpclogin</title>
<polygon fill="#a5d6a7" stroke="black" points="1480,-111 1363,-111 1363,-73 1480,-73 1480,-111"/>
<text text-anchor="middle" x="1421.5" y="-95.8" font-family="Helvetica,sans-Serif" font-size="14.00">HPC Systems</text>
<text text-anchor="middle" x="1421.5" y="-80.8" font-family="Helvetica,sans-Serif" font-size="14.00">(direct access)</text>
</g>
<!-- hpc&#45;&gt;hpclogin -->
<g id="edge9" class="edge">
<title>hpc&#45;&gt;hpclogin</title>
<path fill="none" stroke="black" d="M1198.26,-82.56C1243.55,-84.48 1305.62,-87.12 1352.65,-89.12"/>
<polygon fill="black" stroke="black" points="1352.61,-92.62 1362.75,-89.55 1352.91,-85.63 1352.61,-92.62"/>
<text text-anchor="middle" x="1276.5" y="-91.8" font-family="Times,serif" font-size="14.00">direct I/O</text>
</g>
<!-- webui&#45;&gt;bioloop -->
<g id="edge10" class="edge">
<title>webui&#45;&gt;bioloop</title>
<path fill="none" stroke="black" d="M1367.91,-27.6C1277.47,-15.02 1087.4,3.21 934,-37 917.6,-41.3 900.37,-48 885.16,-54.75"/>
<polygon fill="black" stroke="black" points="883.62,-51.61 875.98,-58.94 886.53,-57.98 883.62,-51.61"/>
<text text-anchor="middle" x="1137" y="-18.8" font-family="Times,serif" font-size="14.00">manage / notify</text>
</g>
</g>
</svg>
