<svg width="12in" height="12in" viewBox="0 0 4320 4320" xmlns:xlink="http://www.w3.org/1999/xlink" xmlns="http://www.w3.org/2000/svg"><defs><linearGradient id="a"><stop style="stop-color:#d7e9fb;stop-opacity:1" offset="0"/><stop style="stop-color:#d7e9fb;stop-opacity:.66241336" offset="1"/></linearGradient><linearGradient xlink:href="#a" id="b" gradientUnits="userSpaceOnUse" x1="1321.835" y1="624.256" x2="1886.594" y2="1585.027"/></defs><g style="display:inline"><path style="opacity:1;fill:#8499b5;fill-opacity:1;stroke:#000;stroke-width:15.4107;stroke-linecap:round;stroke-miterlimit:4;stroke-dasharray:none;stroke-dashoffset:0;stroke-opacity:1" d="M7.705-1252.295h4304.589v4304.589H7.705z" transform="translate(0 1260)"/></g><path style="fill:#486fc1;fill-opacity:1;stroke:none;stroke-width:30.0075" d="M2270.292 2044.023h1740.837v224.006H2270.292z"/><circle style="fill:#9eb2cf;fill-opacity:1;stroke:none;stroke-width:30.0075" cx="4134.308" cy="2160.463" r="188.429"/><g style="display:inline"><path style="display:inline;fill:#3a63c6;fill-opacity:1;stroke:#000;stroke-width:3.75px;stroke-linecap:butt;stroke-linejoin:miter;stroke-opacity:1" d="M1574.814 1088.822c-38.126.326-76.425 5.506-112.646 17.674-29.022 9.725-56.428 23.9-81.88 40.834-26.914 17.732-51.97 38.089-78.621 56.196-.678.655-1.659.457-2.52.543-8.127.115-16.208-1.032-24.209-2.346-13.803-2.375-27.526-5.182-41.296-7.737-18.329-3.445-36.766-6.442-55.355-8.065-29.451-2.626-59.235-1.99-88.474 2.519-30.403 4.58-60.244 12.406-89.4 22.086-30.75 10.273-60.765 22.674-90.075 36.513-46.446 21.991-91.083 47.731-133.776 76.316-44.757 30.046-87.349 63.396-126.668 100.296-23.614 22.207-45.926 45.82-66.448 70.92-5.724 6.53-11.613 12.92-17.24 19.529-50.989 58.97-94.582 124.543-127.447 195.3-23.653 50.856-41.78 104.296-53.695 159.11-12.683 58.164-18.432 117.797-17.621 177.31.939 69.58 10.672 138.926 27.383 206.437a171.85 171.85 0 0 0 4.366 15.172l27.136 84.72c-21.354 23.752-40.422 49.875-54.029 78.872-7.097 15.125-12.532 31.046-15.917 47.414-15.167 66.86-25.177 135.112-26.145 203.746-.752 57.016 5.072 114.335 19.974 169.459 9.497 35.15 22.663 69.293 39.07 101.792 10.425 20.77 22.096 40.882 34.05 60.801 5.937 10.035 11.987 20.015 17.36 30.369 2.5 4.884 4.916 9.82 7.813 14.486a858.968 858.968 0 0 1 2.92 4.873c34.807 57.943 76.936 111.436 124.743 159.203 45.252 45.339 95.418 85.626 148.506 121.412 60.064 40.56 123.786 75.442 188.97 107.018 24.804 12.049 49.842 23.612 74.984 34.94 62.506 15.625 126.232 27.026 190.6 30.984 41.178 2.56 82.565 2.022 123.634-1.982a717.028 717.028 0 0 0 115.67-20.886c42.765-11.387 84.469-26.687 124.57-45.39 58.34-27.123 113.316-61.17 164.78-99.707 42.847-32.053 83.296-67.235 121.776-104.394 4.11-3.589 8.485-6.854 12.687-10.332 26.337-21.172 53.059-41.876 80.414-61.72.332-.234.974-.701 1.425-1.024 21.05-15.224 42.468-29.951 64.413-43.858.376-.242 1.072-.676 1.57-.991 26.408-16.64 53.59-32.132 81.92-45.273 15.626-7.207 31.607-13.687 48.01-18.91.335-.108 1.146-.359 1.663-.522a320.033 320.033 0 0 1 19.348-5.343c.372-.093 1.168-.28 1.702-.41 3.365-.827 6.827-1.364 10.016-2.782 3.432-1.469 6.746-3.196 10.14-4.749 53.533-25.35 106.207-52.8 155.91-85.106 28.755-18.761 56.506-39.24 81.613-62.715 17.78-16.656 34.144-34.979 47.473-55.42 4.202-6.46 8.08-13.132 11.557-20.01 28.728-22.052 53.91-48.772 73.898-78.99 21.417-32.16 37.227-67.82 48.63-104.671 12.739-40.98 20.248-83.425 24.74-126.052 5.285-50.705 6.19-101.78 4.7-152.708-1.04-34.352-3.18-68.668-6.281-102.894-3.766-36.242-12.157-71.855-22.76-106.664-13.43-43.828-30.72-86.42-50.68-127.666-23.977-49.415-51.944-96.938-84.107-141.478-25.238-34.86-53.097-67.928-84.326-97.588-29.148-27.648-61.337-52.41-97.002-71.086-6.697-3.518-13.542-6.764-20.444-9.849-7.4-5.949-14.74-11.975-22.119-17.953l-39.57-32.17c-7.774-54.679-19.625-108.972-38.52-160.947-17.697-48.782-41.692-95.359-71.968-137.54-12.949-18.123-27.077-35.384-41.958-51.95-25.332-29.435-51.794-58.043-81.163-83.52-34.068-29.69-71.83-55.233-112.457-75.075-40.81-20.026-84.257-34.493-128.702-43.916-33.31-7.098-67.167-11.587-101.161-13.62a536.967 536.967 0 0 0-33.453-.835z"/></g><g style="display:inline"><path style="display:inline;fill:url(#b);stroke:#000;stroke-width:3.75px;stroke-linecap:butt;stroke-linejoin:miter;stroke-opacity:1;fill-opacity:1" d="M454.172 982.39c-73.51-291.797 10.455-529.227 174.436-708.2C750.545 122.65 995.285-15.467 1140.527-15.596c81.91-1.303 149.18 34.273 188.8 12.827 83.854-55.242 130.874-120.291 291.282-106.575C1826.235-91.257 1920.046 7.805 1988.768 87.81c93.669 103.554 124.49 221.322 139.106 339.955l86.832 70.59c168.688 67.312 316.785 351.001 331.258 512.835 29.363 343.062-50.73 457.204-134.671 515.776-24.718 64.903-118.276 135.228-280.072 210.929-100.518 22.432-217.537 101.25-340.934 201.856-287.272 279.207-539.282 289.688-782.06 229.814-183.32-82.764-387.036-192.794-510.86-405.758-37.25-78.985-160.974-197.247-80.57-540.43 11.59-44.526 45.658-84.403 77.6-115.418z" transform="translate(0 1260)"/></g><circle style="fill:#dce6f1;fill-opacity:1;stroke:none;stroke-width:30.0075" cx="1114.725" cy="500.278" r="101.735"/><circle style="fill:#dce6f1;fill-opacity:1;stroke:none;stroke-width:30.0075" cx="1256.882" cy="922.774" r="101.735"/><circle style="fill:#dce6f1;fill-opacity:1;stroke:none;stroke-width:30.0075" cx="2493.339" cy="1321.34" r="101.735"/><circle style="fill:#dce6f1;fill-opacity:1;stroke:none;stroke-width:30.0075" cx="2673.039" cy="1161.113" r="101.735"/><circle style="fill:#dce6f1;fill-opacity:1;stroke:none;stroke-width:30.0075" cx="2860.539" cy="996.114" r="101.735"/><circle style="fill:#dce6f1;fill-opacity:1;stroke:none;stroke-width:30.0075" cx="2769.343" cy="1887.689" r="101.735"/><circle style="fill:#dce6f1;fill-opacity:1;stroke:none;stroke-width:30.0075" cx="3002.378" cy="1762.437" r="101.735"/><circle style="fill:#dce6f1;fill-opacity:1;stroke:none;stroke-width:30.0075" cx="3238.856" cy="1622.444" r="101.735"/><circle style="fill:#dce6f1;fill-opacity:1;stroke:none;stroke-width:30.0075" cx="3459.039" cy="1488.031" r="101.735"/><circle style="fill:#dce6f1;fill-opacity:1;stroke:none;stroke-width:30.0075" cx="3685.794" cy="1358.555" r="101.735"/><circle style="fill:#dce6f1;fill-opacity:1;stroke:none;stroke-width:30.0075" cx="2105.41" cy="3484.269" r="101.735"/><circle style="fill:#dce6f1;fill-opacity:1;stroke:none;stroke-width:30.0075" cx="2288.829" cy="3656.171" r="101.735"/><circle style="fill:#dce6f1;fill-opacity:1;stroke:none;stroke-width:30.0075" cx="2479.748" cy="3844.893" r="101.735"/><circle style="fill:#dce6f1;fill-opacity:1;stroke:none;stroke-width:30.0075" cx="2678.167" cy="4046.419" r="101.735"/></svg>
