<svg xmlns="http://www.w3.org/2000/svg" width="12in" height="12in" viewBox="-180 630 4320 4320"><g style="display:inline"><path d="m3270.787 753.091-2573.534-6.613c-85.177 2.98-162.128 64.042-161.816 160.926L525.78 4665.58c-.238 92.407 90.31 166.387 160.987 161.755l2573.533 6.613c95.324 5.752 161.558-60.292 161.816-160.926l9.658-3758.175c-.434-77.765-64.477-161.508-160.987-161.756z" style="fill:#979797;fill-opacity:1;stroke:#000;stroke-width:204.887;stroke-linecap:butt;stroke-linejoin:miter;stroke-miterlimit:4;stroke-dasharray:none;stroke-opacity:1"/><rect width="1569.956" height="418.359" x="1195.022" y="748.985" rx="144" ry="144" style="fill:none;stroke:#000;stroke-width:144;stroke-miterlimit:4;stroke-dasharray:none;stroke-opacity:1"/></g><g style="display:inline"><path fill="currentColor" d="M1300.112 1656.858c-23.41 22.454-40.12 59.746-42.728 116.183 71.113 443.447 351.646 549.62 783.201 777.849 468.547 247.79 617.455 590.961 100.827 876.352l236.023 124.208c558.727-412.714 303.782-862.147-65.973-1101.188-505.48-326.799-734.457-301.156-824.277-745.543-23.689-65.56-127.25-105.22-187.079-47.85zm344.445 20.704c-13.198 51.452 1.713 89.008 58.713 148.265 239.926-21.125 505.5 22.527 701.685 44.12-13.062 51.541-35.725 109.741-85.5 148.649-99.326-16.64-339.654-36.82-499.874-33.9 78.042 64.745 150.627 98.339 218.384 154.263 271.484 15.691 351.433 82.059 351.433 82.059 173.364-156.625 240.553-367.786 249.774-544.296 7.086-93.087-179.554-139.58-188.935 29.827-270.731-29.216-540.416-49.01-805.68-28.987zm-180.062 903.32c-261.59 255.694-248.933 637.775 20.412 881.587 244.816 204.408 493.339 250.099 691.038 415.28l-236.494-14.387c-48.188 38.667-92.202 70.79-113.194 143.534l482.021 13.677c31.742 44.407 61.28 95.221 88.231 154.357-179.71 3.572-419.687-20.66-665.922-30.282-53.199 83.548-52.12 159.899-51.66 161.76l775.83 29.076c10.341 203.932 249.873 109.822 239.579-52.078-43.044-564.688-603.792-723.503-1035.03-983.909l396.875 16.652c103.776-30.267 192.402-121.036 205.312-174.617l-744.523-14.584c-23.244-60.956-13.852-91.337 9.14-159.24l727.029 15.032c-19.803-64.884-26.686-138.841-159.642-186.823l-488.199-24.75c26.32-52.837 141.575-112.962 231.74-160.183l-243.591-131.169c-48.612 30.593-91.58 64.545-128.947 101.072zm83.877 1228.577c-183.603 179.826-208.66 354.392-218.951 515.408-8.77 144.618 211.964 171.836 235.114 21.392 11.738-205.88 52.198-348.816 238.558-510.298l-165.908-103.865c-33.123 25.881-62.585 51.678-88.81 77.366z" style="stroke-width:5.65795"/></g></svg>